<?xml version="1.0" standalone="no"?>
<!DOCTYPE svg PUBLIC "-//W3C//DTD SVG 20010904//EN"
 "http://www.w3.org/TR/2001/REC-SVG-20010904/DTD/svg10.dtd">
<svg version="1.0" xmlns="http://www.w3.org/2000/svg"
 width="800.000000pt" height="800.000000pt" viewBox="0 0 800.000000 800.000000"
 preserveAspectRatio="xMidYMid meet">
<metadata>
Created by potrace 1.14, written by Peter Selinger 2001-2017
</metadata>
<g transform="translate(0.000000,800.000000) scale(0.100000,-0.100000)"
fill="#000000" stroke="none">
<path d="M2880 7982 c-28 -23 -26 58 -31 -1147 -3 -743 -3 -736 43 -748 30 -8
54 3 264 120 l200 112 240 4 c273 5 294 10 294 74 0 8 -64 125 -142 259 -79
135 -151 259 -162 277 -201 349 -382 658 -397 679 -10 15 -19 29 -19 32 0 2
-40 72 -90 156 -49 84 -90 154 -90 157 0 12 -32 34 -57 39 -20 4 -36 0 -53
-14z"/>
<path d="M5928 7562 c-37 -32 -418 -408 -1069 -1054 -109 -109 -200 -206 -200
-215 -4 -62 14 -75 166 -118 144 -40 255 -72 300 -86 17 -5 91 -69 175 -150
193 -187 207 -199 234 -199 43 0 64 30 91 135 15 55 28 107 30 115 4 19 214
817 266 1015 23 83 42 157 44 165 2 8 20 78 40 155 49 184 54 209 42 231 -27
50 -68 52 -119 6z"/>
<path d="M443 6110 c-27 -11 -42 -38 -36 -69 2 -14 4 -26 6 -27 54 -63 1278
-1289 1292 -1294 43 -16 82 25 101 105 3 10 57 198 95 326 20 71 4 51 251 305
88 91 108 117 108 141 0 17 -9 38 -19 47 -16 15 -96 41 -181 61 -15 3 -167 43
-185 49 -5 2 -23 6 -40 10 -16 5 -123 33 -238 63 -114 30 -215 56 -225 58 -19
4 -432 112 -552 145 -162 44 -342 90 -348 89 -4 0 -17 -4 -29 -9z"/>
<path d="M3818 6015 c-1 -1 -34 -6 -72 -10 -395 -39 -788 -215 -1107 -495 -81
-72 -219 -227 -280 -315 -27 -38 -53 -75 -57 -80 -30 -36 -140 -250 -178 -346
-41 -105 -94 -284 -108 -369 -3 -19 -8 -46 -11 -60 -27 -129 -27 -462 0 -615
3 -16 7 -43 10 -60 18 -109 70 -282 120 -400 31 -72 113 -234 134 -264 12 -16
21 -32 21 -35 0 -3 31 -48 68 -99 204 -274 451 -482 742 -622 409 -198 845
-248 1315 -151 45 9 145 39 225 68 431 155 798 456 1031 846 126 213 223 471
254 682 4 24 8 47 10 50 16 26 25 343 13 460 -9 93 -36 265 -48 305 -114 395
-273 675 -525 929 -141 141 -281 246 -476 354 -141 78 -418 175 -564 196 -49
8 -104 17 -130 23 -24 5 -381 13 -387 8z"/>
<path d="M6068 5147 c-26 -9 -47 -36 -48 -60 0 -10 39 -89 87 -175 48 -86 101
-184 118 -217 l31 -61 3 -194 c3 -286 4 -290 31 -312 16 -13 33 -18 50 -15 24
5 220 119 1115 642 215 126 407 238 427 249 35 20 55 47 53 71 -3 31 -19 54
-43 62 -15 5 -322 11 -682 12 -360 1 -760 3 -888 4 -128 1 -243 -1 -254 -6z"/>
<path d="M1560 3937 c-22 -12 -75 -43 -173 -101 -18 -10 -144 -84 -282 -164
-137 -80 -322 -188 -410 -240 -88 -52 -176 -104 -195 -115 -219 -123 -483
-284 -491 -299 -14 -27 -1 -76 24 -89 30 -17 1817 -25 1847 -9 11 6 25 23 31
37 10 27 0 52 -66 168 -16 28 -59 106 -97 175 l-68 125 -1 105 c-2 350 -4 382
-29 402 -26 21 -56 23 -90 5z"/>
<path d="M6184 3337 c-19 -10 -37 -33 -40 -52 -7 -36 -119 -414 -128 -432 -6
-12 -74 -86 -151 -165 -188 -193 -187 -193 -187 -223 0 -41 31 -64 113 -85 83
-21 272 -70 364 -95 33 -9 67 -18 75 -20 8 -2 76 -19 150 -39 179 -47 359 -94
620 -162 118 -31 270 -71 338 -89 68 -19 131 -31 140 -28 33 12 52 36 52 67 0
27 -47 78 -396 431 -604 612 -887 895 -893 896 -3 0 -13 2 -22 4 -8 1 -24 -2
-35 -8z"/>
<path d="M2350 2298 c-11 -12 -20 -27 -20 -34 0 -6 -43 -175 -96 -375 -53
-200 -98 -373 -100 -384 -2 -11 -10 -42 -19 -70 -8 -27 -37 -140 -66 -250 -28
-110 -57 -220 -64 -245 -18 -59 -96 -368 -101 -400 -6 -35 28 -70 67 -70 22 0
41 11 69 38 21 20 313 309 649 642 557 550 611 607 611 636 0 33 -37 74 -66
74 -7 0 -33 6 -56 14 -24 8 -104 31 -178 51 -74 20 -149 42 -167 49 -18 6
-106 83 -196 170 -91 87 -171 162 -179 167 -24 16 -67 9 -88 -13z"/>
<path d="M4795 1864 l-210 -117 -150 -4 c-348 -8 -343 -8 -364 -28 -22 -19
-29 -73 -12 -91 5 -5 64 -103 131 -219 68 -115 132 -226 143 -245 11 -19 33
-57 49 -85 16 -27 34 -59 41 -69 52 -83 77 -126 77 -130 0 -2 34 -61 75 -131
41 -69 75 -131 75 -136 0 -5 5 -9 10 -9 6 0 10 -5 10 -10 0 -6 24 -50 53 -98
29 -48 56 -94 60 -102 4 -8 17 -31 29 -52 13 -20 49 -82 81 -137 32 -56 68
-110 79 -120 24 -23 63 -20 90 7 21 20 21 30 25 934 4 995 7 942 -53 953 -24
4 -68 -17 -239 -111z"/>
</g>
</svg>
